<?xml version="1.0" encoding="iso-8859-1"?>
<!-- Generator: Adobe Illustrator 19.0.0, SVG Export Plug-In . SVG Version: 6.00 Build 0)  -->
<svg version="1.1" id="Layer_1" xmlns="http://www.w3.org/2000/svg" xmlns:xlink="http://www.w3.org/1999/xlink" x="0px" y="0px"
	 viewBox="0 0 512 512" style="enable-background:new 0 0 512 512;" xml:space="preserve">
<path style="fill:#EFC27B;" d="M204.8,25.6L204.8,25.6C91.693,25.6,0,117.293,0,230.4h204.8v0.001l102.4-0.001V25.6H204.8z"/>
<path style="fill:#58575D;" d="M409.6,486.4H512V153.6c0-70.693-57.308-128-128-128H281.6v332.8
	C281.6,429.092,338.907,486.4,409.6,486.4"/>
<path style="fill:#454449;" d="M396.8,26.235v459.53c4.21,0.417,8.48,0.635,12.8,0.635H512V153.6
	C512,87.227,461.482,32.658,396.8,26.235z"/>
<path style="fill:#F8F8F9;" d="M281.6,25.6c76.8,0,128,45.846,128,102.4s-51.2,102.4-128,102.4"/>
<path style="fill:#454449;" d="M345.6,102.4c-14.111,0-25.595,11.482-25.6,25.6c0,6.838,2.662,13.267,7.497,18.103
	c4.835,4.835,11.263,7.497,18.093,7.497c0.003,0,0.006,0,0.009,0c14.116,0,25.6-11.484,25.6-25.6
	C371.199,113.884,359.716,102.4,345.6,102.4z"/>
<path style="fill:#58575D;" d="M42.691,105.252c-7.923,10.246-14.895,21.262-20.786,32.92
	c39.078,15.324,66.842,50.684,72.585,92.228h38.662C127.453,175.31,92.731,127.663,42.691,105.252z"/>
<g>
</g>
<g>
</g>
<g>
</g>
<g>
</g>
<g>
</g>
<g>
</g>
<g>
</g>
<g>
</g>
<g>
</g>
<g>
</g>
<g>
</g>
<g>
</g>
<g>
</g>
<g>
</g>
<g>
</g>
</svg>
