<?xml version="1.0" encoding="iso-8859-1"?>
<!-- Generator: Adobe Illustrator 19.0.0, SVG Export Plug-In . SVG Version: 6.00 Build 0)  -->
<svg version="1.1" id="Layer_1" xmlns="http://www.w3.org/2000/svg" xmlns:xlink="http://www.w3.org/1999/xlink" x="0px" y="0px"
	 viewBox="0 0 512 512" style="enable-background:new 0 0 512 512;" xml:space="preserve">
<path style="fill:#4B58E3;" d="M497.127,86.715l-66.394,66.394l-96.051,24.21l96.815-129.095l65.621-33.341
	C516.955,34.718,516.963,66.878,497.127,86.715z"/>
<path style="fill:#FFADD4;" d="M430.733,153.107c4.446,26.866-3.664,55.394-24.388,76.118l-14.324,14.324L244.24,267.76
	l114.652-114.652H430.733z"/>
<polygon style="fill:#C9817F;" points="392.021,243.55 301.579,333.992 153.805,358.195 268.45,243.55 "/>
<path style="fill:#80086E;" d="M301.579,333.992l-64.683,64.683c-34.08,34.08-66.741,25.76-149.323,25.752l90.442-90.442
	L301.579,333.992z"/>
<path style="fill:#FFD3FF;" d="M358.892,153.107L244.24,267.761l24.21-147.781l14.324-14.324
	c20.725-20.725,49.253-28.835,76.118-24.388V153.107z"/>
<polygon style="fill:#FFADD4;" points="268.45,243.55 153.805,358.195 178.008,210.422 268.45,119.98 "/>
<path style="fill:#BD60B2;" d="M178.016,333.984l-90.442,90.442c-0.008-82.582-8.328-115.242,25.752-149.323l64.683-64.683
	L178.016,333.984z"/>
<path style="fill:#089AC6;" d="M497.119,14.882L358.892,153.107v-71.84l66.394-66.394C445.123-4.963,477.282-4.955,497.119,14.882z"
	/>
<path style="fill:#BD60B2;" d="M156.84,453.1c-0.024,5.027-4.108,9.095-9.127,9.095c-0.541-0.008-50.262-0.226-88.546-0.226
	l-9.127-0.008l18.255-18.255c36.647,0.04,78.999,0.218,79.459,0.226C152.797,443.957,156.864,448.057,156.84,453.1z"/>
<path style="fill:#C9817F;" d="M128.594,481.346c-0.024,5.027-4.108,9.095-9.127,9.095c-0.541-0.008-50.262-0.226-88.546-0.226
	l-9.127-0.008l18.255-18.255c36.639,0.032,78.999,0.218,79.459,0.226C124.551,472.202,128.619,476.302,128.594,481.346z"/>
<path style="fill:#FFADD4;" d="M40.049,471.952l-18.255,18.255l-0.008-9.127c0-38.285-0.218-88.005-0.218-88.505
	c-0.024-5.043,4.044-9.144,9.087-9.168c5.061-0.008,9.144,4.06,9.168,9.087C39.831,392.953,40.023,435.305,40.049,471.952z"/>
<path style="fill:#C9817F;" d="M68.293,443.706l-18.255,18.255l-0.008-9.127c0.008-38.293-0.218-88.005-0.218-88.505
	c-0.024-5.043,4.044-9.144,9.087-9.168c5.061-0.008,9.144,4.06,9.168,9.087C68.075,364.708,68.269,407.06,68.293,443.706z"/>
<path style="fill:#80086E;" d="M2.675,509.326c-3.565-3.565-3.565-9.346,0-12.913l463.78-463.78c3.565-3.565,9.347-3.565,12.913,0
	s3.565,9.346,0,12.913l-463.78,463.78C12.021,512.892,6.24,512.892,2.675,509.326z"/>
<g>
</g>
<g>
</g>
<g>
</g>
<g>
</g>
<g>
</g>
<g>
</g>
<g>
</g>
<g>
</g>
<g>
</g>
<g>
</g>
<g>
</g>
<g>
</g>
<g>
</g>
<g>
</g>
<g>
</g>
</svg>
